<mxfile host="app.diagrams.net" modified="2021-09-30T04:26:08.660Z" agent="5.0 (X11)" etag="-etcyYw1e_h2nq8h2VEn" version="15.3.5" type="github">
  <diagram id="NbG65dvA3p4xnbDG3jSU" name="Page-1">
    <mxGraphModel dx="868" dy="481" grid="1" gridSize="10" guides="1" tooltips="1" connect="1" arrows="1" fold="1" page="1" pageScale="1" pageWidth="850" pageHeight="1100" math="0" shadow="0">
      <root>
        <mxCell id="0" />
        <mxCell id="1" parent="0" />
        <mxCell id="qYnZsuattaMB0d3nzfZM-2" style="edgeStyle=none;curved=1;rounded=0;orthogonalLoop=1;jettySize=auto;html=1;endArrow=open;startSize=14;endSize=14;sourcePerimeterSpacing=8;targetPerimeterSpacing=8;" edge="1" parent="1" source="qYnZsuattaMB0d3nzfZM-1" target="qYnZsuattaMB0d3nzfZM-3">
          <mxGeometry relative="1" as="geometry">
            <mxPoint x="580" y="250" as="targetPoint" />
          </mxGeometry>
        </mxCell>
        <mxCell id="qYnZsuattaMB0d3nzfZM-1" value="Clone kernel source code." style="ellipse;whiteSpace=wrap;html=1;aspect=fixed;hachureGap=4;pointerEvents=0;" vertex="1" parent="1">
          <mxGeometry x="380" y="210" width="80" height="80" as="geometry" />
        </mxCell>
        <mxCell id="qYnZsuattaMB0d3nzfZM-4" style="edgeStyle=none;curved=1;rounded=0;orthogonalLoop=1;jettySize=auto;html=1;endArrow=open;startSize=14;endSize=14;sourcePerimeterSpacing=8;targetPerimeterSpacing=8;" edge="1" parent="1" source="qYnZsuattaMB0d3nzfZM-3" target="qYnZsuattaMB0d3nzfZM-5">
          <mxGeometry relative="1" as="geometry">
            <mxPoint x="740" y="250" as="targetPoint" />
          </mxGeometry>
        </mxCell>
        <mxCell id="qYnZsuattaMB0d3nzfZM-3" value="create local branch and fetch upstream source in local." style="rounded=1;whiteSpace=wrap;html=1;hachureGap=4;pointerEvents=0;" vertex="1" parent="1">
          <mxGeometry x="520" y="220" width="120" height="60" as="geometry" />
        </mxCell>
        <mxCell id="qYnZsuattaMB0d3nzfZM-6" style="edgeStyle=none;curved=1;rounded=0;orthogonalLoop=1;jettySize=auto;html=1;endArrow=open;startSize=14;endSize=14;sourcePerimeterSpacing=8;targetPerimeterSpacing=8;" edge="1" parent="1" source="qYnZsuattaMB0d3nzfZM-5" target="qYnZsuattaMB0d3nzfZM-7">
          <mxGeometry relative="1" as="geometry">
            <mxPoint x="910" y="250" as="targetPoint" />
          </mxGeometry>
        </mxCell>
        <mxCell id="qYnZsuattaMB0d3nzfZM-5" value="merge local branch to upstream(specific commit or tag)" style="rounded=1;whiteSpace=wrap;html=1;hachureGap=4;pointerEvents=0;" vertex="1" parent="1">
          <mxGeometry x="700" y="220" width="120" height="60" as="geometry" />
        </mxCell>
        <mxCell id="qYnZsuattaMB0d3nzfZM-8" style="edgeStyle=none;curved=1;rounded=0;orthogonalLoop=1;jettySize=auto;html=1;endArrow=open;startSize=14;endSize=14;sourcePerimeterSpacing=8;targetPerimeterSpacing=8;" edge="1" parent="1" source="qYnZsuattaMB0d3nzfZM-7" target="qYnZsuattaMB0d3nzfZM-9">
          <mxGeometry relative="1" as="geometry">
            <mxPoint x="950" y="380" as="targetPoint" />
          </mxGeometry>
        </mxCell>
        <mxCell id="qYnZsuattaMB0d3nzfZM-7" value="resolve all conflict." style="rounded=1;whiteSpace=wrap;html=1;hachureGap=4;pointerEvents=0;" vertex="1" parent="1">
          <mxGeometry x="890" y="220" width="120" height="60" as="geometry" />
        </mxCell>
        <mxCell id="qYnZsuattaMB0d3nzfZM-9" value="Build, resolve error if needed and test." style="rounded=1;whiteSpace=wrap;html=1;hachureGap=4;pointerEvents=0;" vertex="1" parent="1">
          <mxGeometry x="1090" y="220" width="120" height="60" as="geometry" />
        </mxCell>
      </root>
    </mxGraphModel>
  </diagram>
</mxfile>
